<?xml version="1.0" encoding="utf-8" standalone="no"?><!DOCTYPE svg PUBLIC "-//W3C//DTD SVG 1.1//EN" "http://www.w3.org/Graphics/SVG/1.1/DTD/svg11.dtd">
<svg preserveAspectRatio="xMinYMin meet" width="100%" height="100%" viewBox="0 0 360.000 360.000"  version="1.1" xmlns="http://www.w3.org/2000/svg" xmlns:xlink="http://www.w3.org/1999/xlink">
  <desc>Matlab Figure Converted by PLOT2SVG written by Juerg Schwizer</desc>
  <g id="topgroup">
  <rect x="0" y="0" width="360.000" height="360.000" fill="#ffffff" stroke="none" />
  <g id ="ID000000">
  <clipPath id="ID000001">
    <rect x="46.800" y="27.000" width="279.000" height="293.400"/>
  </clipPath>
      <polygon fill="#ffffff" fill-opacity="1.00" stroke="none" stroke-width="0.5pt" stroke-opacity="1.00" stroke-dasharray="none" points="46.800,320.400 325.800,320.400 325.800,27.000 46.800,27.000 "/>
      <polygon fill="#ffffff" fill-opacity="1.00" stroke="none" stroke-width="0.5pt" stroke-opacity="1.00" stroke-dasharray="none" points="46.800,320.400 325.800,320.400 325.800,320.400 46.800,320.400 "/>
      <polygon fill="#ffffff" fill-opacity="1.00" stroke="none" stroke-width="0.5pt" stroke-opacity="1.00" stroke-dasharray="none" points="46.800,320.400 46.800,320.400 46.800,27.000 46.800,27.000 "/>
    <g>
<g id="ID000002" >
  <g transform="translate(14.442,173.700)">
    <g transform="rotate(-90.0)">
      <text x="0.000" y="0.000" font-family="Arial" text-anchor="middle" font-size="13pt" fill="#262626" ><tspan>SEAP activity [U/L]</tspan></text>
    </g>
  </g>
</g>
<g id="ID000003" >
  <g transform="translate(186.300,362.547)">
    <g transform="rotate(-0.0)">
      <text x="0.000" y="0.000" font-family="Arial" text-anchor="middle" font-size="13pt" fill="#262626" ><tspan>log<tspan style="baseline-shift:sub;font-size:65%%">10</tspan>(BSA-fluorescein concentration [nM])</tspan></text>
    </g>
  </g>
</g>
<g id="ID000004" >
  <g transform="translate(186.300,22.462)">
    <g transform="rotate(-0.0)">
      <text x="0.000" y="0.000" font-family="Arial" text-anchor="middle" font-size="13pt" font-weight="bold" fill="#000000" ><tspan>SEAP</tspan></text>
    </g>
  </g>
</g>
<g id="ID000005" clip-path="url(#ID000001)" >
      <polyline fill="none" stroke="#000000" stroke-width="1.5pt" stroke-dasharray="none" stroke-opacity="1.00" points="70.05000,280.76279 70.82759,280.18962 71.60518,279.60732 72.38278,279.01595 73.16037,278.41557 73.93796,277.80623 74.71555,277.18800 75.49314,276.56093 76.27074,275.92509 77.04833,275.28053 77.82592,274.62730 78.60351,273.96548 79.38110,273.29512 80.15870,272.61627 80.93629,271.92901 81.71388,271.23337 82.49147,270.52943 83.26906,269.81725 84.04666,269.09687 84.82425,268.36837 85.60184,267.63180 86.37943,266.88721 87.15702,266.13467 87.93462,265.37424 88.71221,264.60598 89.48980,263.82994 90.26739,263.04618 91.04498,262.25476 91.82258,261.45575 92.60017,260.64919 93.37776,259.83515 94.15535,259.01370 94.93294,258.18487 95.71054,257.34875 96.48813,256.50537 97.26572,255.65481 98.04331,254.79713 98.82090,253.93237 99.59849,253.06060 100.37609,252.18189 101.15368,251.29628 101.93127,250.40383 102.70886,249.50461 103.48645,248.59868 104.26405,247.68609 105.04164,246.76690 105.81923,245.84117 106.59682,244.90897 107.37441,243.97034 108.15201,243.02535 108.92960,242.07405 109.70719,241.11651 110.48478,240.15279 111.26237,239.18293 112.03997,238.20702 112.81756,237.22509 113.59515,236.23721 114.37274,235.24344 115.15033,234.24384 115.92793,233.23846 116.70552,232.22737 117.48311,231.21063 118.26070,230.18828 119.03829,229.16040 119.81589,228.12704 120.59348,227.08827 121.37107,226.04413 122.14866,224.99468 122.92625,223.94000 123.70385,222.88013 124.48144,221.81513 125.25903,220.74507 126.03662,219.67000 126.81421,218.58998 127.59181,217.50507 128.36940,216.41533 129.14699,215.32082 129.92458,214.22159 130.70217,213.11771 131.47977,212.00924 132.25736,210.89622 133.03495,209.77873 133.81254,208.65682 134.59013,207.53055 135.36773,206.39998 136.14532,205.26517 136.92291,204.12618 137.70050,202.98306 138.47809,201.83587 139.25569,200.68468 140.03328,199.52954 140.81087,198.37051 141.58846,197.20765 142.36605,196.04102 143.14365,194.87068 143.92124,193.69668 144.69883,192.51910 145.47642,191.33797 146.25401,190.15337 147.03161,188.96535 147.80920,187.77397 148.58679,186.57929 149.36438,185.38137 150.14197,184.18027 150.91957,182.97605 151.69716,181.76876 152.47475,180.55847 153.25234,179.34523 154.02993,178.12910 154.80753,176.91014 155.58512,175.68841 156.36271,174.46398 157.14030,173.23689 157.91789,172.00720 158.69548,170.77499 159.47308,169.53987 160.25067,168.28225 161.02826,166.99301 161.80585,165.67429 162.58344,164.32826 163.36104,162.95708 164.13863,161.56290 164.91622,160.14788 165.69381,158.71419 166.47140,157.26398 167.24900,155.79941 168.02659,154.32263 168.80418,152.83581 169.58177,151.34110 170.35936,149.84067 171.13696,148.33667 171.91455,146.83126 172.69214,145.32660 173.46973,143.82484 174.24732,142.32815 175.02492,140.83869 175.80251,139.35860 176.58010,137.89006 177.35769,136.43522 178.13528,134.99624 178.91288,133.57527 179.69047,132.17448 180.46806,130.79602 181.24565,129.44206 182.02324,128.11474 182.80084,126.81624 183.57843,125.54870 184.35602,124.31429 185.13361,123.11517 185.91120,121.95348 186.68880,120.82308 187.46639,119.68629 188.24398,118.53996 189.02157,117.38610 189.79916,116.22674 190.57676,115.06389 191.35435,113.89956 192.13194,112.73576 192.90953,111.57452 193.68712,110.41785 194.46472,109.26776 195.24231,108.12627 196.01990,106.99539 196.79749,105.87715 197.57508,104.77355 198.35268,103.68660 199.13027,102.61834 199.90786,101.57077 200.68545,100.54590 201.46304,99.54575 202.24064,98.57234 203.01823,97.62769 203.79582,96.71380 204.57341,95.83269 205.35100,94.98639 206.12860,94.17689 206.90619,93.40623 207.68378,92.67641 208.46137,91.98944 209.23896,91.34736 210.01656,90.75216 210.79415,90.20587 211.57174,89.71050 212.34933,89.26807 213.12692,88.88059 213.90452,88.52535 214.68211,88.17372 215.45970,87.82583 216.23729,87.48189 217.01488,87.14207 217.79247,86.80658 218.57007,86.47561 219.34766,86.14935 220.12525,85.82800 220.90284,85.51175 221.68043,85.20080 222.45803,84.89533 223.23562,84.59555 224.01321,84.30164 224.79080,84.01380 225.56839,83.73223 226.34599,83.45711 227.12358,83.18865 227.90117,82.92703 228.67876,82.67245 229.45635,82.42510 230.23395,82.18518 231.01154,81.95288 231.78913,81.72839 232.56672,81.51191 233.34431,81.30364 234.12191,81.10376 234.89950,80.91246 235.67709,80.72996 236.45468,80.55643 237.23227,80.39207 238.00987,80.23707 238.78746,80.09164 239.56505,79.95595 240.34264,79.83022 241.12023,79.71462 241.89783,79.60935 242.67542,79.51462 243.45301,79.43060 244.23060,79.35751 245.00819,79.29552 245.78579,79.24483 246.56338,79.20564 247.34097,79.17814 248.11856,79.16252 248.89615,79.15920 249.67375,79.17479 250.45134,79.21223 251.22893,79.27135 252.00652,79.35201 252.78411,79.45404 253.56171,79.57729 254.33930,79.72160 255.11689,79.88681 255.89448,80.07277 256.67207,80.27931 257.44967,80.50629 258.22726,80.75353 259.00485,81.02090 259.78244,81.30821 260.56003,81.61533 261.33763,81.94209 262.11522,82.28834 262.89281,82.65391 263.67040,83.03866 264.44799,83.44242 265.22559,83.86503 266.00318,84.30634 266.78077,84.76619 267.55836,85.24442 268.33595,85.74088 269.11355,86.25541 269.89114,86.78784 270.66873,87.33803 271.44632,87.90582 272.22391,88.49104 273.00151,89.09355 273.77910,89.71317 274.55669,90.34977 275.33428,91.00317 276.11187,91.67322 276.88946,92.35977 277.66706,93.06265 278.44465,93.78170 279.22224,94.51678 279.99983,95.26773 280.77742,96.03438 281.55502,96.81658 282.33261,97.61416 283.11020,98.42699 283.88779,99.25489 284.66538,100.09770 285.44298,100.95528 286.22057,101.82746 286.99816,102.71409 287.77575,103.61501 288.55334,104.53005 289.33094,105.45908 290.10853,106.40191 290.88612,107.35841 291.66371,108.32841 292.44130,109.31175 293.21890,110.30828 293.99649,111.31784 294.77408,112.34027 295.55167,113.37541 296.32926,114.42311 297.10686,115.48321 297.88445,116.55555 298.66204,117.63998 299.43963,118.73633 300.21722,119.84445 300.99482,120.96419 301.77241,122.09537 302.55000,123.23786 "/>
</g>
<g id="ID000006" clip-path="url(#ID000001)" >
      <polygon fill="#000000" fill-opacity="0.20" stroke="none" stroke-width="0.5pt" stroke-opacity="0.20" stroke-dasharray="none" points="70.050,265.576 70.828,265.002 71.605,264.420 72.383,263.829 73.160,263.228 73.938,262.619 74.716,262.001 75.493,261.374 76.271,260.738 77.048,260.093 77.826,259.440 78.604,258.778 79.381,258.108 80.159,257.429 80.936,256.742 81.714,256.046 82.491,255.342 83.269,254.630 84.047,253.910 84.824,253.181 85.602,252.445 86.379,251.700 87.157,250.947 87.935,250.187 88.712,249.419 89.490,248.643 90.267,247.859 91.045,247.068 91.823,246.269 92.600,245.462 93.378,244.648 94.155,243.826 94.933,242.998 95.711,242.162 96.488,241.318 97.266,240.468 98.043,239.610 98.821,238.745 99.598,237.873 100.376,236.995 101.154,236.109 101.931,235.217 102.709,234.317 103.486,233.411 104.264,232.499 105.042,231.580 105.819,230.654 106.597,229.722 107.374,228.783 108.152,227.838 108.930,226.887 109.707,225.929 110.485,224.966 111.262,223.996 112.040,223.020 112.818,222.038 113.595,221.050 114.373,220.056 115.150,219.057 115.928,218.051 116.706,217.040 117.483,216.023 118.261,215.001 119.038,213.973 119.816,212.940 120.593,211.901 121.371,210.857 122.149,209.807 122.926,208.753 123.704,207.693 124.481,206.628 125.259,205.558 126.037,204.483 126.814,203.403 127.592,202.318 128.369,201.228 129.147,200.134 129.925,199.034 130.702,197.931 131.480,196.822 132.257,195.709 133.035,194.592 133.813,193.470 134.590,192.343 135.368,191.213 136.145,190.078 136.923,188.939 137.701,187.796 138.478,186.649 139.256,185.497 140.033,184.342 140.811,183.183 141.588,182.020 142.366,180.854 143.144,179.683 143.921,178.509 144.699,177.332 145.476,176.151 146.254,174.966 147.032,173.778 147.809,172.587 148.587,171.392 149.364,170.194 150.142,168.993 150.920,167.789 151.697,166.582 152.475,165.371 153.252,164.158 154.030,162.942 154.808,161.723 155.585,160.501 156.363,159.277 157.140,158.050 157.918,156.820 158.695,155.588 159.473,154.353 160.251,153.095 161.028,151.806 161.806,150.487 162.583,149.141 163.361,147.770 164.139,146.376 164.916,144.961 165.694,143.527 166.471,142.077 167.249,140.612 168.027,139.135 168.804,137.649 169.582,136.154 170.359,134.653 171.137,133.149 171.915,131.644 172.692,130.139 173.470,128.638 174.247,127.141 175.025,125.651 175.803,124.171 176.580,122.703 177.358,121.248 178.135,119.809 178.913,118.388 179.690,116.987 180.468,115.609 181.246,114.255 182.023,112.928 182.801,111.629 183.578,110.361 184.356,109.127 185.134,107.928 185.911,106.766 186.689,105.636 187.466,104.499 188.244,103.353 189.022,102.199 189.799,101.040 190.577,99.877 191.354,98.712 192.132,97.549 192.910,96.387 193.687,95.231 194.465,94.081 195.242,92.939 196.020,91.808 196.797,90.690 197.575,89.586 198.353,88.499 199.130,87.431 199.908,86.384 200.685,85.359 201.463,84.359 202.241,83.385 203.018,82.440 203.796,81.527 204.573,80.645 205.351,79.799 206.129,78.990 206.906,78.219 207.684,77.489 208.461,76.802 209.239,76.160 210.017,75.565 210.794,75.019 211.572,74.523 212.349,74.081 213.127,73.693 213.905,73.338 214.682,72.987 215.460,72.639 216.237,72.295 217.015,71.955 217.792,71.619 218.570,71.288 219.348,70.962 220.125,70.641 220.903,70.325 221.680,70.014 222.458,69.708 223.236,69.408 224.013,69.114 224.791,68.827 225.568,68.545 226.346,68.270 227.124,68.001 227.901,67.740 228.679,67.485 229.456,67.238 230.234,66.998 231.012,66.766 231.789,66.541 232.567,66.325 233.344,66.116 234.122,65.917 234.899,65.725 235.677,65.543 236.455,65.369 237.232,65.205 238.010,65.050 238.787,64.904 239.565,64.769 240.343,64.643 241.120,64.527 241.898,64.422 242.675,64.327 243.453,64.243 244.231,64.170 245.008,64.108 245.786,64.058 246.563,64.018 247.341,63.991 248.119,63.975 248.896,63.972 249.674,63.988 250.451,64.025 251.229,64.084 252.007,64.165 252.784,64.267 253.562,64.390 254.339,64.534 255.117,64.700 255.894,64.886 256.672,65.092 257.450,65.319 258.227,65.566 259.005,65.834 259.782,66.121 260.560,66.428 261.338,66.755 262.115,67.101 262.893,67.467 263.670,67.851 264.448,68.255 265.226,68.678 266.003,69.119 266.781,69.579 267.558,70.057 268.336,70.554 269.114,71.068 269.891,71.601 270.669,72.151 271.446,72.719 272.224,73.304 273.002,73.906 273.779,74.526 274.557,75.163 275.334,75.816 276.112,76.486 276.889,77.173 277.667,77.875 278.445,78.594 279.222,79.330 280.000,80.081 280.777,80.847 281.555,81.629 282.333,82.427 283.110,83.240 283.888,84.068 284.665,84.910 285.443,85.768 286.221,86.640 286.998,87.527 287.776,88.428 288.553,89.343 289.331,90.272 290.109,91.215 290.886,92.171 291.664,93.141 292.441,94.125 293.219,95.121 293.996,96.131 294.774,97.153 295.552,98.188 296.329,99.236 297.107,100.296 297.884,101.368 298.662,102.453 299.440,103.549 300.217,104.657 300.995,105.777 301.772,106.908 302.550,108.051 302.550,138.425 301.772,137.283 300.995,136.151 300.217,135.032 299.440,133.924 298.662,132.827 297.884,131.743 297.107,130.670 296.329,129.610 295.552,128.563 294.774,127.527 293.996,126.505 293.219,125.495 292.441,124.499 291.664,123.516 290.886,122.546 290.109,121.589 289.331,120.646 288.553,119.717 287.776,118.802 286.998,117.901 286.221,117.015 285.443,116.142 284.665,115.285 283.888,114.442 283.110,113.614 282.333,112.801 281.555,112.004 280.777,111.222 280.000,110.455 279.222,109.704 278.445,108.969 277.667,108.250 276.889,107.547 276.112,106.860 275.334,106.190 274.557,105.537 273.779,104.900 273.002,104.281 272.224,103.678 271.446,103.093 270.669,102.525 269.891,101.975 269.114,101.443 268.336,100.928 267.558,100.432 266.781,99.953 266.003,99.494 265.226,99.052 264.448,98.630 263.670,98.226 262.893,97.841 262.115,97.476 261.338,97.129 260.560,96.803 259.782,96.495 259.005,96.208 258.227,95.941 257.450,95.693 256.672,95.467 255.894,95.260 255.117,95.074 254.339,94.909 253.562,94.765 252.784,94.641 252.007,94.539 251.229,94.459 250.451,94.399 249.674,94.362 248.896,94.346 248.119,94.350 247.341,94.365 246.563,94.393 245.786,94.432 245.008,94.483 244.231,94.545 243.453,94.618 242.675,94.702 241.898,94.797 241.120,94.902 240.343,95.017 239.565,95.143 238.787,95.279 238.010,95.424 237.232,95.579 236.455,95.744 235.677,95.917 234.899,96.100 234.122,96.291 233.344,96.491 232.567,96.699 231.789,96.916 231.012,97.140 230.234,97.372 229.456,97.612 228.679,97.860 227.901,98.114 227.124,98.376 226.346,98.644 225.568,98.919 224.791,99.201 224.013,99.489 223.236,99.783 222.458,100.083 221.680,100.388 220.903,100.699 220.125,101.015 219.348,101.337 218.570,101.663 217.792,101.994 217.015,102.329 216.237,102.669 215.460,103.013 214.682,103.361 213.905,103.713 213.127,104.068 212.349,104.455 211.572,104.898 210.794,105.393 210.017,105.939 209.239,106.535 208.461,107.177 207.684,107.864 206.906,108.593 206.129,109.364 205.351,110.174 204.573,111.020 203.796,111.901 203.018,112.815 202.241,113.760 201.463,114.733 200.685,115.733 199.908,116.758 199.130,117.806 198.353,118.874 197.575,119.961 196.797,121.064 196.020,122.183 195.242,123.313 194.465,124.455 193.687,125.605 192.910,126.762 192.132,127.923 191.354,129.087 190.577,130.251 189.799,131.414 189.022,132.573 188.244,133.727 187.466,134.873 186.689,136.010 185.911,137.141 185.134,138.302 184.356,139.502 183.578,140.736 182.801,142.003 182.023,143.302 181.246,144.629 180.468,145.983 179.690,147.362 178.913,148.762 178.135,150.183 177.358,151.622 176.580,153.077 175.803,154.546 175.025,156.026 174.247,157.515 173.470,159.012 172.692,160.514 171.915,162.018 171.137,163.524 170.359,165.028 169.582,166.528 168.804,168.023 168.027,169.510 167.249,170.987 166.471,172.451 165.694,173.901 164.916,175.335 164.139,176.750 163.361,178.144 162.583,179.515 161.806,180.861 161.028,182.180 160.251,183.469 159.473,184.727 158.695,185.962 157.918,187.194 157.140,188.424 156.363,189.651 155.585,190.876 154.808,192.097 154.030,193.316 153.252,194.532 152.475,195.746 151.697,196.956 150.920,198.163 150.142,199.367 149.364,200.569 148.587,201.767 147.809,202.961 147.032,204.153 146.254,205.341 145.476,206.525 144.699,207.706 143.921,208.884 143.144,210.058 142.366,211.228 141.588,212.395 140.811,213.558 140.033,214.717 139.256,215.872 138.478,217.023 137.701,218.170 136.923,219.313 136.145,220.452 135.368,221.587 134.590,222.718 133.813,223.844 133.035,224.966 132.257,226.083 131.480,227.196 130.702,228.305 129.925,229.409 129.147,230.508 128.369,231.603 127.592,232.692 126.814,233.777 126.037,234.857 125.259,235.932 124.481,237.002 123.704,238.067 122.926,239.127 122.149,240.182 121.371,241.231 120.593,242.275 119.816,243.314 119.038,244.348 118.261,245.375 117.483,246.398 116.706,247.415 115.928,248.426 115.150,249.431 114.373,250.431 113.595,251.424 112.818,252.412 112.040,253.394 111.262,254.370 110.485,255.340 109.707,256.304 108.930,257.261 108.152,258.213 107.374,259.158 106.597,260.096 105.819,261.028 105.042,261.954 104.264,262.873 103.486,263.786 102.709,264.692 101.931,265.591 101.154,266.483 100.376,267.369 99.598,268.248 98.821,269.120 98.043,269.984 97.266,270.842 96.488,271.693 95.711,272.536 94.933,273.372 94.155,274.201 93.378,275.022 92.600,275.836 91.823,276.643 91.045,277.442 90.267,278.233 89.490,279.017 88.712,279.793 87.935,280.561 87.157,281.322 86.379,282.074 85.602,282.819 84.824,283.556 84.047,284.284 83.269,285.004 82.491,285.717 81.714,286.421 80.936,287.116 80.159,287.803 79.381,288.482 78.604,289.153 77.826,289.815 77.048,290.468 76.271,291.112 75.493,291.748 74.716,292.375 73.938,292.993 73.160,293.603 72.383,294.203 71.605,294.795 70.828,295.377 70.050,295.950 "/>
</g>
<g id="ID000007" clip-path="url(#ID000001)" >
<g>
<circle cx="96.866" cy="207.469" r="3.000" fill="#000000" stroke="none" stroke-width="0.5pt" />
<circle cx="96.866" cy="220.000" r="3.000" fill="#000000" stroke="none" stroke-width="0.5pt" />
<circle cx="96.866" cy="201.249" r="3.000" fill="#000000" stroke="none" stroke-width="0.5pt" />
<circle cx="96.866" cy="189.432" r="3.000" fill="#000000" stroke="none" stroke-width="0.5pt" />
<circle cx="159.346" cy="199.463" r="3.000" fill="#000000" stroke="none" stroke-width="0.5pt" />
<circle cx="159.346" cy="171.707" r="3.000" fill="#000000" stroke="none" stroke-width="0.5pt" />
<circle cx="159.346" cy="180.348" r="3.000" fill="#000000" stroke="none" stroke-width="0.5pt" />
<circle cx="159.346" cy="176.569" r="3.000" fill="#000000" stroke="none" stroke-width="0.5pt" />
<circle cx="186.254" cy="142.494" r="3.000" fill="#000000" stroke="none" stroke-width="0.5pt" />
<circle cx="186.254" cy="156.386" r="3.000" fill="#000000" stroke="none" stroke-width="0.5pt" />
<circle cx="186.254" cy="160.690" r="3.000" fill="#000000" stroke="none" stroke-width="0.5pt" />
<circle cx="186.254" cy="104.902" r="3.000" fill="#000000" stroke="none" stroke-width="0.5pt" />
<circle cx="213.162" cy="86.554" r="3.000" fill="#000000" stroke="none" stroke-width="0.5pt" />
<circle cx="213.162" cy="72.344" r="3.000" fill="#000000" stroke="none" stroke-width="0.5pt" />
<circle cx="213.162" cy="55.119" r="3.000" fill="#000000" stroke="none" stroke-width="0.5pt" />
<circle cx="213.162" cy="84.630" r="3.000" fill="#000000" stroke="none" stroke-width="0.5pt" />
<circle cx="248.733" cy="79.921" r="3.000" fill="#000000" stroke="none" stroke-width="0.5pt" />
<circle cx="248.733" cy="87.143" r="3.000" fill="#000000" stroke="none" stroke-width="0.5pt" />
<circle cx="248.733" cy="51.450" r="3.000" fill="#000000" stroke="none" stroke-width="0.5pt" />
<circle cx="248.733" cy="89.705" r="3.000" fill="#000000" stroke="none" stroke-width="0.5pt" />
<circle cx="302.550" cy="106.781" r="3.000" fill="#000000" stroke="none" stroke-width="0.5pt" />
<circle cx="302.550" cy="119.561" r="3.000" fill="#000000" stroke="none" stroke-width="0.5pt" />
<circle cx="302.550" cy="152.290" r="3.000" fill="#000000" stroke="none" stroke-width="0.5pt" />
<circle cx="302.550" cy="120.974" r="3.000" fill="#000000" stroke="none" stroke-width="0.5pt" />
</g>
</g>
<g id="ID000008" clip-path="url(#ID000001)" >
      <polyline fill="none" stroke="#0000ff" stroke-width="0.5pt" stroke-dasharray="8.0,2.0" stroke-opacity="1.00" points="46.80000,290.58197 325.80000,290.58197 "/>
</g>
    </g>
    <g>
      <polyline fill="none" stroke="#262626" stroke-width="0.5pt" stroke-dasharray="none" stroke-opacity="1.00" points="96.86630,320.40000 96.86630,323.33400 "/>
      <polyline fill="none" stroke="#262626" stroke-width="0.5pt" stroke-dasharray="none" stroke-opacity="1.00" points="186.25397,320.40000 186.25397,323.33400 "/>
      <polyline fill="none" stroke="#262626" stroke-width="0.5pt" stroke-dasharray="none" stroke-opacity="1.00" points="275.64163,320.40000 275.64163,323.33400 "/>
      <polyline fill="none" stroke="#262626" stroke-width="0.5pt" stroke-dasharray="none" stroke-opacity="1.00" points="46.80000,320.40000 325.80000,320.40000 "/>
  <g transform="translate(96.866,343.362)">
    <g transform="rotate(-0.0)">
      <text x="0.000" y="0.000" font-family="Arial" text-anchor="middle" font-size="12pt" fill="#262626" ><tspan>1</tspan></text>
    </g>
  </g>
  <g transform="translate(186.254,343.362)">
    <g transform="rotate(-0.0)">
      <text x="0.000" y="0.000" font-family="Arial" text-anchor="middle" font-size="12pt" fill="#262626" ><tspan>2</tspan></text>
    </g>
  </g>
  <g transform="translate(275.642,343.362)">
    <g transform="rotate(-0.0)">
      <text x="0.000" y="0.000" font-family="Arial" text-anchor="middle" font-size="12pt" fill="#262626" ><tspan>3</tspan></text>
    </g>
  </g>
      <polyline fill="none" stroke="#262626" stroke-width="0.5pt" stroke-dasharray="none" stroke-opacity="1.00" points="46.80000,306.79896 43.86600,306.79896 "/>
      <polyline fill="none" stroke="#262626" stroke-width="0.5pt" stroke-dasharray="none" stroke-opacity="1.00" points="46.80000,274.75829 43.86600,274.75829 "/>
      <polyline fill="none" stroke="#262626" stroke-width="0.5pt" stroke-dasharray="none" stroke-opacity="1.00" points="46.80000,242.71763 43.86600,242.71763 "/>
      <polyline fill="none" stroke="#262626" stroke-width="0.5pt" stroke-dasharray="none" stroke-opacity="1.00" points="46.80000,210.67696 43.86600,210.67696 "/>
      <polyline fill="none" stroke="#262626" stroke-width="0.5pt" stroke-dasharray="none" stroke-opacity="1.00" points="46.80000,178.63630 43.86600,178.63630 "/>
      <polyline fill="none" stroke="#262626" stroke-width="0.5pt" stroke-dasharray="none" stroke-opacity="1.00" points="46.80000,146.59563 43.86600,146.59563 "/>
      <polyline fill="none" stroke="#262626" stroke-width="0.5pt" stroke-dasharray="none" stroke-opacity="1.00" points="46.80000,114.55497 43.86600,114.55497 "/>
      <polyline fill="none" stroke="#262626" stroke-width="0.5pt" stroke-dasharray="none" stroke-opacity="1.00" points="46.80000,82.51430 43.86600,82.51430 "/>
      <polyline fill="none" stroke="#262626" stroke-width="0.5pt" stroke-dasharray="none" stroke-opacity="1.00" points="46.80000,50.47363 43.86600,50.47363 "/>
      <polyline fill="none" stroke="#262626" stroke-width="0.5pt" stroke-dasharray="none" stroke-opacity="1.00" points="46.80000,320.40000 46.80000,27.00000 "/>
  <g transform="translate(38.430,312.199)">
    <g transform="rotate(-0.0)">
      <text x="0.000" y="0.000" font-family="Arial" text-anchor="end" font-size="12pt" fill="#262626" ><tspan>0</tspan></text>
    </g>
  </g>
  <g transform="translate(38.430,280.158)">
    <g transform="rotate(-0.0)">
      <text x="0.000" y="0.000" font-family="Arial" text-anchor="end" font-size="12pt" fill="#262626" ><tspan>5</tspan></text>
    </g>
  </g>
  <g transform="translate(38.430,248.118)">
    <g transform="rotate(-0.0)">
      <text x="0.000" y="0.000" font-family="Arial" text-anchor="end" font-size="12pt" fill="#262626" ><tspan>10</tspan></text>
    </g>
  </g>
  <g transform="translate(38.430,216.077)">
    <g transform="rotate(-0.0)">
      <text x="0.000" y="0.000" font-family="Arial" text-anchor="end" font-size="12pt" fill="#262626" ><tspan>15</tspan></text>
    </g>
  </g>
  <g transform="translate(38.430,184.036)">
    <g transform="rotate(-0.0)">
      <text x="0.000" y="0.000" font-family="Arial" text-anchor="end" font-size="12pt" fill="#262626" ><tspan>20</tspan></text>
    </g>
  </g>
  <g transform="translate(38.430,151.996)">
    <g transform="rotate(-0.0)">
      <text x="0.000" y="0.000" font-family="Arial" text-anchor="end" font-size="12pt" fill="#262626" ><tspan>25</tspan></text>
    </g>
  </g>
  <g transform="translate(38.430,119.955)">
    <g transform="rotate(-0.0)">
      <text x="0.000" y="0.000" font-family="Arial" text-anchor="end" font-size="12pt" fill="#262626" ><tspan>30</tspan></text>
    </g>
  </g>
  <g transform="translate(38.430,87.914)">
    <g transform="rotate(-0.0)">
      <text x="0.000" y="0.000" font-family="Arial" text-anchor="end" font-size="12pt" fill="#262626" ><tspan>35</tspan></text>
    </g>
  </g>
  <g transform="translate(38.430,55.874)">
    <g transform="rotate(-0.0)">
      <text x="0.000" y="0.000" font-family="Arial" text-anchor="end" font-size="12pt" fill="#262626" ><tspan>40</tspan></text>
    </g>
  </g>
      <polyline fill="none" stroke="#262626" stroke-width="0.5pt" stroke-dasharray="none" stroke-opacity="1.00" points="46.80000,320.40000 46.80000,323.33400 "/>
      <polyline fill="none" stroke="#262626" stroke-width="0.5pt" stroke-dasharray="none" stroke-opacity="1.00" points="46.80000,320.40000 46.80000,323.33400 "/>
      <polyline fill="none" stroke="#262626" stroke-width="0.5pt" stroke-dasharray="none" stroke-opacity="1.00" points="46.80000,320.40000 46.80000,323.33400 "/>
      <polyline fill="none" stroke="#262626" stroke-width="0.5pt" stroke-dasharray="none" stroke-opacity="1.00" points="46.80000,320.40000 46.80000,320.40000 "/>
    </g>
  </g>
  </g>
</svg>
