<?xml version="1.0" encoding="utf-8" standalone="no"?><!DOCTYPE svg PUBLIC "-//W3C//DTD SVG 1.1//EN" "http://www.w3.org/Graphics/SVG/1.1/DTD/svg11.dtd">
<svg preserveAspectRatio="xMinYMin meet" width="100%" height="100%" viewBox="0 0 360.000 360.000"  version="1.1" xmlns="http://www.w3.org/2000/svg" xmlns:xlink="http://www.w3.org/1999/xlink">
  <desc>Matlab Figure Converted by PLOT2SVG written by Juerg Schwizer</desc>
  <g id="topgroup">
  <rect x="0" y="0" width="360.000" height="360.000" fill="#ffffff" stroke="none" />
  <g id ="ID000000">
  <clipPath id="ID000001">
    <rect x="46.800" y="27.000" width="279.000" height="293.400"/>
  </clipPath>
      <polygon fill="#ffffff" fill-opacity="1.00" stroke="none" stroke-width="0.5pt" stroke-opacity="1.00" stroke-dasharray="none" points="46.800,320.400 325.800,320.400 325.800,27.000 46.800,27.000 "/>
      <polygon fill="#ffffff" fill-opacity="1.00" stroke="none" stroke-width="0.5pt" stroke-opacity="1.00" stroke-dasharray="none" points="46.800,320.400 325.800,320.400 325.800,320.400 46.800,320.400 "/>
      <polygon fill="#ffffff" fill-opacity="1.00" stroke="none" stroke-width="0.5pt" stroke-opacity="1.00" stroke-dasharray="none" points="46.800,320.400 46.800,320.400 46.800,27.000 46.800,27.000 "/>
    <g>
<g id="ID000002" >
  <g transform="translate(14.442,173.700)">
    <g transform="rotate(-90.0)">
      <text x="0.000" y="0.000" font-family="Arial" text-anchor="middle" font-size="13pt" fill="#262626" ><tspan>SEAP activity [U/L]</tspan></text>
    </g>
  </g>
</g>
<g id="ID000003" >
  <g transform="translate(186.300,362.547)">
    <g transform="rotate(-0.0)">
      <text x="0.000" y="0.000" font-family="Arial" text-anchor="middle" font-size="13pt" fill="#262626" ><tspan>log<tspan style="baseline-shift:sub;font-size:65%%">10</tspan>(BSA-fluorescein concentration [nM])</tspan></text>
    </g>
  </g>
</g>
<g id="ID000004" >
  <g transform="translate(186.300,22.462)">
    <g transform="rotate(-0.0)">
      <text x="0.000" y="0.000" font-family="Arial" text-anchor="middle" font-size="13pt" font-weight="bold" fill="#000000" ><tspan>SEAP</tspan></text>
    </g>
  </g>
</g>
<g id="ID000005" clip-path="url(#ID000001)" >
      <polyline fill="none" stroke="#000000" stroke-width="1.5pt" stroke-dasharray="none" stroke-opacity="1.00" points="70.05000,279.05842 70.82759,278.21851 71.60518,277.37241 72.38278,276.52017 73.16037,275.66183 73.93796,274.79745 74.71555,273.92706 75.49314,273.05071 76.27074,272.16845 77.04833,271.28032 77.82592,270.38637 78.60351,269.48664 79.38110,268.58118 80.15870,267.67003 80.93629,266.75324 81.71388,265.83086 82.49147,264.90292 83.26906,263.96948 84.04666,263.03058 84.82425,262.08627 85.60184,261.13658 86.37943,260.18158 87.15702,259.22129 87.93462,258.25577 88.71221,257.28506 89.48980,256.30921 90.26739,255.32826 91.04498,254.34227 91.82258,253.35126 92.60017,252.35529 93.37776,251.35441 94.15535,250.34866 94.93294,249.33808 95.71054,248.32272 96.48813,247.30263 97.26572,246.27785 98.04331,245.24843 98.82090,244.21441 99.59849,243.17583 100.37609,242.13275 101.15368,241.08520 101.93127,240.03324 102.70886,238.97691 103.48645,237.91625 104.26405,236.85131 105.04164,235.78213 105.81923,234.70877 106.59682,233.63126 107.37441,232.54965 108.15201,231.46399 108.92960,230.37431 109.70719,229.28068 110.48478,228.18312 111.26237,227.08170 112.03997,225.97644 112.81756,224.86741 113.59515,223.75463 114.37274,222.63817 115.15033,221.51806 115.92793,220.39435 116.70552,219.26709 117.48311,218.13631 118.26070,217.00207 119.03829,215.86441 119.81589,214.72338 120.59348,213.57902 121.37107,212.43138 122.14866,211.28050 122.92625,210.12642 123.70385,208.96920 124.48144,207.80888 125.25903,206.64550 126.03662,205.47911 126.81421,204.30975 127.59181,203.13748 128.36940,201.96233 129.14699,200.78435 129.92458,199.60358 130.70217,198.42008 131.47977,197.23388 132.25736,196.04504 133.03495,194.85359 133.81254,193.65958 134.59013,192.46307 135.36773,191.26408 136.14532,190.06268 136.92291,188.85890 137.70050,187.65278 138.47809,186.44439 139.25569,185.23375 140.03328,184.02092 140.81087,182.80551 141.58846,181.57024 142.36605,180.30720 143.14365,179.01806 143.92124,177.70447 144.69883,176.36810 145.47642,175.01062 146.25401,173.63368 147.03161,172.23895 147.80920,170.82808 148.58679,169.40275 149.36438,167.96461 150.14197,166.51533 150.91957,165.05656 151.69716,163.58997 152.47475,162.11723 153.25234,160.63999 154.02993,159.15992 154.80753,157.67867 155.58512,156.19791 156.36271,154.71931 157.14030,153.24453 157.91789,151.77522 158.69548,150.31305 159.47308,148.85968 160.25067,147.41677 161.02826,145.98600 161.80585,144.56901 162.58344,143.16747 163.36104,141.78304 164.13863,140.41739 164.91622,139.07217 165.69381,137.74906 166.47140,136.44970 167.24900,135.17577 168.02659,133.92893 168.80418,132.71083 169.58177,131.52315 170.35936,130.36753 171.13696,129.24558 171.91455,128.13321 172.69214,127.01144 173.46973,125.88183 174.24732,124.74593 175.02492,123.60528 175.80251,122.46145 176.58010,121.31598 177.35769,120.17043 178.13528,119.02635 178.91288,117.88528 179.69047,116.74878 180.46806,115.61841 181.24565,114.49572 182.02324,113.38225 182.80084,112.27955 183.57843,111.18919 184.35602,110.11271 185.13361,109.05167 185.91120,108.00761 186.68880,106.98209 187.46639,105.97666 188.24398,104.99288 189.02157,104.03229 189.79916,103.09644 190.57676,102.18689 191.35435,101.30519 192.13194,100.45289 192.90953,99.63155 193.68712,98.84271 194.46472,98.08793 195.24231,97.36876 196.01990,96.68675 196.79749,96.04346 197.57508,95.44042 198.35268,94.87921 199.13027,94.36136 199.90786,93.88844 200.68545,93.46199 201.46304,93.08356 202.24064,92.73379 203.01823,92.38716 203.79582,92.04376 204.57341,91.70372 205.35100,91.36720 206.12860,91.03435 206.90619,90.70532 207.68378,90.38025 208.46137,90.05929 209.23896,89.74260 210.01656,89.43032 210.79415,89.12261 211.57174,88.81960 212.34933,88.52146 213.12692,88.22833 213.90452,87.94035 214.68211,87.65769 215.45970,87.38048 216.23729,87.10888 217.01488,86.84304 217.79247,86.58310 218.57007,86.32922 219.34766,86.08154 220.12525,85.84022 220.90284,85.60540 221.68043,85.37723 222.45803,85.15586 223.23562,84.94144 224.01321,84.73412 224.79080,84.53405 225.56839,84.34138 226.34599,84.15626 227.12358,83.97883 227.90117,83.80925 228.67876,83.64766 229.45635,83.49422 230.23395,83.34907 231.01154,83.21236 231.78913,83.08425 232.56672,82.96488 233.34431,82.85440 234.12191,82.75296 234.89950,82.66071 235.67709,82.57779 236.45468,82.50437 237.23227,82.44058 238.00987,82.38657 238.78746,82.34251 239.56505,82.30852 240.34264,82.28477 241.12023,82.27141 241.89783,82.26880 242.67542,82.28282 243.45301,82.31588 244.23060,82.36784 245.00819,82.43859 245.78579,82.52802 246.56338,82.63599 247.34097,82.76239 248.11856,82.90709 248.89615,83.06998 249.67375,83.25094 250.45134,83.44983 251.22893,83.66654 252.00652,83.90096 252.78411,84.15295 253.56171,84.42240 254.33930,84.70918 255.11689,85.01318 255.89448,85.33428 256.67207,85.67234 257.44967,86.02725 258.22726,86.39890 259.00485,86.78715 259.78244,87.19189 260.56003,87.61299 261.33763,88.05034 262.11522,88.50381 262.89281,88.97329 263.67040,89.45864 264.44799,89.95975 265.22559,90.47650 266.00318,91.00877 266.78077,91.55643 267.55836,92.11937 268.33595,92.69746 269.11355,93.29058 269.89114,93.89862 270.66873,94.52144 271.44632,95.15893 272.22391,95.81096 273.00151,96.47742 273.77910,97.15819 274.55669,97.85314 275.33428,98.56215 276.11187,99.28510 276.88946,100.02187 277.66706,100.77234 278.44465,101.53638 279.22224,102.31388 279.99983,103.10472 280.77742,103.90876 281.55502,104.72590 282.33261,105.55601 283.11020,106.39897 283.88779,107.25465 284.66538,108.12294 285.44298,109.00372 286.22057,109.89686 286.99816,110.80225 287.77575,111.71975 288.55334,112.64926 289.33094,113.59064 290.10853,114.54379 290.88612,115.50856 291.66371,116.48486 292.44130,117.47255 293.21890,118.47151 293.99649,119.48162 294.77408,120.50276 295.55167,121.53482 296.32926,122.57765 297.10686,123.63116 297.88445,124.69521 298.66204,125.76969 299.43963,126.85446 300.21722,127.94942 300.99482,129.05444 301.77241,130.16940 302.55000,131.29418 "/>
</g>
<g id="ID000006" clip-path="url(#ID000001)" >
      <polygon fill="#000000" fill-opacity="0.20" stroke="none" stroke-width="0.5pt" stroke-opacity="0.20" stroke-dasharray="none" points="70.050,262.167 70.828,261.327 71.605,260.481 72.383,259.629 73.160,258.770 73.938,257.906 74.716,257.035 75.493,256.159 76.271,255.277 77.048,254.389 77.826,253.495 78.604,252.595 79.381,251.690 80.159,250.778 80.936,249.862 81.714,248.939 82.491,248.011 83.269,247.078 84.047,246.139 84.824,245.195 85.602,244.245 86.379,243.290 87.157,242.330 87.935,241.364 88.712,240.393 89.490,239.418 90.267,238.437 91.045,237.451 91.823,236.460 92.600,235.464 93.378,234.463 94.155,233.457 94.933,232.447 95.711,231.431 96.488,230.411 97.266,229.386 98.043,228.357 98.821,227.323 99.598,226.284 100.376,225.241 101.154,224.194 101.931,223.142 102.709,222.085 103.486,221.025 104.264,219.960 105.042,218.891 105.819,217.817 106.597,216.740 107.374,215.658 108.152,214.572 108.930,213.483 109.707,212.389 110.485,211.292 111.262,210.190 112.040,209.085 112.818,207.976 113.595,206.863 114.373,205.747 115.150,204.626 115.928,203.503 116.706,202.376 117.483,201.245 118.261,200.110 119.038,198.973 119.816,197.832 120.593,196.687 121.371,195.540 122.149,194.389 122.926,193.235 123.704,192.078 124.481,190.917 125.259,189.754 126.037,188.588 126.814,187.418 127.592,186.246 128.369,185.071 129.147,183.893 129.925,182.712 130.702,181.528 131.480,180.342 132.257,179.153 133.035,177.962 133.813,176.768 134.590,175.571 135.368,174.373 136.145,173.171 136.923,171.967 137.701,170.761 138.478,169.553 139.256,168.342 140.033,167.129 140.811,165.914 141.588,164.679 142.366,163.416 143.144,162.126 143.921,160.813 144.699,159.477 145.476,158.119 146.254,156.742 147.032,155.347 147.809,153.937 148.587,152.511 149.364,151.073 150.142,149.624 150.920,148.165 151.697,146.698 152.475,145.226 153.252,143.748 154.030,142.268 154.808,140.787 155.585,139.306 156.363,137.828 157.140,136.353 157.918,134.884 158.695,133.421 159.473,131.968 160.251,130.525 161.028,129.094 161.806,127.677 162.583,126.276 163.361,124.891 164.139,123.526 164.916,122.181 165.694,120.857 166.471,119.558 167.249,118.284 168.027,117.037 168.804,115.819 169.582,114.632 170.359,113.476 171.137,112.354 171.915,111.242 172.692,110.120 173.470,108.990 174.247,107.854 175.025,106.714 175.803,105.570 176.580,104.424 177.358,103.279 178.135,102.135 178.913,100.994 179.690,99.857 180.468,98.727 181.246,97.604 182.023,96.491 182.801,95.388 183.578,94.298 184.356,93.221 185.134,92.160 185.911,91.116 186.689,90.091 187.466,89.085 188.244,88.101 189.022,87.141 189.799,86.205 190.577,85.295 191.354,84.414 192.132,83.561 192.910,82.740 193.687,81.951 194.465,81.196 195.242,80.477 196.020,79.795 196.797,79.152 197.575,78.549 198.353,77.988 199.130,77.470 199.908,76.997 200.685,76.570 201.463,76.192 202.241,75.842 203.018,75.496 203.796,75.152 204.573,74.812 205.351,74.476 206.129,74.143 206.906,73.814 207.684,73.489 208.461,73.168 209.239,72.851 210.017,72.539 210.794,72.231 211.572,71.928 212.349,71.630 213.127,71.337 213.905,71.049 214.682,70.766 215.460,70.489 216.237,70.217 217.015,69.951 217.792,69.692 218.570,69.438 219.348,69.190 220.125,68.949 220.903,68.714 221.680,68.486 222.458,68.264 223.236,68.050 224.013,67.843 224.791,67.642 225.568,67.450 226.346,67.265 227.124,67.087 227.901,66.918 228.679,66.756 229.456,66.603 230.234,66.457 231.012,66.321 231.789,66.193 232.567,66.073 233.344,65.963 234.122,65.861 234.899,65.769 235.677,65.686 236.455,65.613 237.232,65.549 238.010,65.495 238.787,65.451 239.565,65.417 240.343,65.393 241.120,65.380 241.898,65.377 242.675,65.391 243.453,65.424 244.231,65.476 245.008,65.547 245.786,65.636 246.563,65.744 247.341,65.871 248.119,66.016 248.896,66.178 249.674,66.359 250.451,66.558 251.229,66.775 252.007,67.009 252.784,67.261 253.562,67.531 254.339,67.818 255.117,68.122 255.894,68.443 256.672,68.781 257.450,69.136 258.227,69.507 259.005,69.896 259.782,70.300 260.560,70.721 261.338,71.159 262.115,71.612 262.893,72.082 263.670,72.567 264.448,73.068 265.226,73.585 266.003,74.117 266.781,74.665 267.558,75.228 268.336,75.806 269.114,76.399 269.891,77.007 270.669,77.630 271.446,78.267 272.224,78.919 273.002,79.586 273.779,80.267 274.557,80.962 275.334,81.671 276.112,82.394 276.889,83.130 277.667,83.881 278.445,84.645 279.222,85.422 280.000,86.213 280.777,87.017 281.555,87.834 282.333,88.664 283.110,89.507 283.888,90.363 284.665,91.231 285.443,92.112 286.221,93.005 286.998,93.911 287.776,94.828 288.553,95.758 289.331,96.699 290.109,97.652 290.886,98.617 291.664,99.593 292.441,100.581 293.219,101.580 293.996,102.590 294.774,103.611 295.552,104.643 296.329,105.686 297.107,106.740 297.884,107.804 298.662,108.878 299.440,109.963 300.217,111.058 300.995,112.163 301.772,113.278 302.550,114.403 302.550,148.186 301.772,147.061 300.995,145.946 300.217,144.841 299.440,143.746 298.662,142.661 297.884,141.587 297.107,140.523 296.329,139.469 295.552,138.426 294.774,137.394 293.996,136.373 293.219,135.363 292.441,134.364 291.664,133.376 290.886,132.400 290.109,131.435 289.331,130.482 288.553,129.541 287.776,128.611 286.998,127.694 286.221,126.788 285.443,125.895 284.665,125.015 283.888,124.146 283.110,123.291 282.333,122.448 281.555,121.617 280.777,120.800 280.000,119.996 279.222,119.205 278.445,118.428 277.667,117.664 276.889,116.913 276.112,116.177 275.334,115.454 274.557,114.745 273.779,114.050 273.002,113.369 272.224,112.703 271.446,112.051 270.669,111.413 269.891,110.790 269.114,110.182 268.336,109.589 267.558,109.011 266.781,108.448 266.003,107.900 265.226,107.368 264.448,106.851 263.670,106.350 262.893,105.865 262.115,105.395 261.338,104.942 260.560,104.505 259.782,104.083 259.005,103.679 258.227,103.290 257.450,102.919 256.672,102.564 255.894,102.226 255.117,101.905 254.339,101.601 253.562,101.314 252.784,101.045 252.007,100.793 251.229,100.558 250.451,100.341 249.674,100.143 248.896,99.962 248.119,99.799 247.341,99.654 246.563,99.528 245.786,99.420 245.008,99.330 244.231,99.259 243.453,99.207 242.675,99.174 241.898,99.160 241.120,99.163 240.343,99.176 239.565,99.200 238.787,99.234 238.010,99.278 237.232,99.332 236.455,99.396 235.677,99.469 234.899,99.552 234.122,99.645 233.344,99.746 232.567,99.856 231.789,99.976 231.012,100.104 230.234,100.241 229.456,100.386 228.679,100.539 227.901,100.701 227.124,100.870 226.346,101.048 225.568,101.233 224.791,101.426 224.013,101.626 223.236,101.833 222.458,102.047 221.680,102.269 220.903,102.497 220.125,102.732 219.348,102.973 218.570,103.221 217.792,103.475 217.015,103.735 216.237,104.000 215.460,104.272 214.682,104.549 213.905,104.832 213.127,105.120 212.349,105.413 211.572,105.711 210.794,106.014 210.017,106.322 209.239,106.634 208.461,106.951 207.684,107.272 206.906,107.597 206.129,107.926 205.351,108.259 204.573,108.595 203.796,108.935 203.018,109.279 202.241,109.625 201.463,109.975 200.685,110.354 199.908,110.780 199.130,111.253 198.353,111.771 197.575,112.332 196.797,112.935 196.020,113.578 195.242,114.260 194.465,114.980 193.687,115.734 192.910,116.523 192.132,117.344 191.354,118.197 190.577,119.078 189.799,119.988 189.022,120.924 188.244,121.884 187.466,122.868 186.689,123.874 185.911,124.899 185.134,125.943 184.356,127.004 183.578,128.081 182.801,129.171 182.023,130.274 181.246,131.387 180.468,132.510 179.690,133.640 178.913,134.777 178.135,135.918 177.358,137.062 176.580,138.208 175.803,139.353 175.025,140.497 174.247,141.638 173.470,142.773 172.692,143.903 171.915,145.025 171.137,146.137 170.359,147.259 169.582,148.415 168.804,149.602 168.027,150.821 167.249,152.067 166.471,153.341 165.694,154.641 164.916,155.964 164.139,157.309 163.361,158.675 162.583,160.059 161.806,161.461 161.028,162.878 160.251,164.308 159.473,165.751 158.695,167.205 157.918,168.667 157.140,170.136 156.363,171.611 155.585,173.089 154.808,174.570 154.030,176.051 153.252,177.532 152.475,179.009 151.697,180.482 150.920,181.948 150.142,183.407 149.364,184.856 148.587,186.294 147.809,187.720 147.032,189.131 146.254,190.525 145.476,191.902 144.699,193.260 143.921,194.596 143.144,195.910 142.366,197.199 141.588,198.462 140.811,199.697 140.033,200.912 139.256,202.125 138.478,203.336 137.701,204.544 136.923,205.750 136.145,206.954 135.368,208.156 134.590,209.355 133.813,210.551 133.035,211.745 132.257,212.937 131.480,214.125 130.702,215.312 129.925,216.495 129.147,217.676 128.369,218.854 127.592,220.029 126.814,221.201 126.037,222.371 125.259,223.537 124.481,224.700 123.704,225.861 122.926,227.018 122.149,228.172 121.371,229.323 120.593,230.471 119.816,231.615 119.038,232.756 118.261,233.894 117.483,235.028 116.706,236.159 115.928,237.286 115.150,238.410 114.373,239.530 113.595,240.646 112.818,241.759 112.040,242.868 111.262,243.973 110.485,245.075 109.707,246.172 108.930,247.266 108.152,248.356 107.374,249.441 106.597,250.523 105.819,251.600 105.042,252.674 104.264,253.743 103.486,254.808 102.709,255.868 101.931,256.925 101.154,257.977 100.376,259.024 99.598,260.067 98.821,261.106 98.043,262.140 97.266,263.169 96.488,264.194 95.711,265.214 94.933,266.230 94.155,267.240 93.378,268.246 92.600,269.247 91.823,270.243 91.045,271.234 90.267,272.220 89.490,273.201 88.712,274.177 87.935,275.147 87.157,276.113 86.379,277.073 85.602,278.028 84.824,278.978 84.047,279.922 83.269,280.861 82.491,281.795 81.714,282.722 80.936,283.645 80.159,284.562 79.381,285.473 78.604,286.378 77.826,287.278 77.048,288.172 76.271,289.060 75.493,289.942 74.716,290.819 73.938,291.689 73.160,292.553 72.383,293.412 71.605,294.264 70.828,295.110 70.050,295.950 "/>
</g>
<g id="ID000007" clip-path="url(#ID000001)" >
<g>
<circle cx="70.050" cy="224.978" r="3.000" fill="#000000" stroke="none" stroke-width="0.5pt" />
<circle cx="70.050" cy="238.915" r="3.000" fill="#000000" stroke="none" stroke-width="0.5pt" />
<circle cx="70.050" cy="218.060" r="3.000" fill="#000000" stroke="none" stroke-width="0.5pt" />
<circle cx="70.050" cy="204.916" r="3.000" fill="#000000" stroke="none" stroke-width="0.5pt" />
<circle cx="140.675" cy="216.073" r="3.000" fill="#000000" stroke="none" stroke-width="0.5pt" />
<circle cx="140.675" cy="185.202" r="3.000" fill="#000000" stroke="none" stroke-width="0.5pt" />
<circle cx="140.675" cy="194.814" r="3.000" fill="#000000" stroke="none" stroke-width="0.5pt" />
<circle cx="140.675" cy="190.610" r="3.000" fill="#000000" stroke="none" stroke-width="0.5pt" />
<circle cx="171.092" cy="152.711" r="3.000" fill="#000000" stroke="none" stroke-width="0.5pt" />
<circle cx="171.092" cy="168.162" r="3.000" fill="#000000" stroke="none" stroke-width="0.5pt" />
<circle cx="171.092" cy="172.949" r="3.000" fill="#000000" stroke="none" stroke-width="0.5pt" />
<circle cx="171.092" cy="110.900" r="3.000" fill="#000000" stroke="none" stroke-width="0.5pt" />
<circle cx="201.508" cy="90.493" r="3.000" fill="#000000" stroke="none" stroke-width="0.5pt" />
<circle cx="201.508" cy="74.689" r="3.000" fill="#000000" stroke="none" stroke-width="0.5pt" />
<circle cx="201.508" cy="55.531" r="3.000" fill="#000000" stroke="none" stroke-width="0.5pt" />
<circle cx="201.508" cy="88.354" r="3.000" fill="#000000" stroke="none" stroke-width="0.5pt" />
<circle cx="241.717" cy="83.116" r="3.000" fill="#000000" stroke="none" stroke-width="0.5pt" />
<circle cx="241.717" cy="91.149" r="3.000" fill="#000000" stroke="none" stroke-width="0.5pt" />
<circle cx="241.717" cy="51.450" r="3.000" fill="#000000" stroke="none" stroke-width="0.5pt" />
<circle cx="241.717" cy="93.998" r="3.000" fill="#000000" stroke="none" stroke-width="0.5pt" />
<circle cx="302.550" cy="112.990" r="3.000" fill="#000000" stroke="none" stroke-width="0.5pt" />
<circle cx="302.550" cy="127.204" r="3.000" fill="#000000" stroke="none" stroke-width="0.5pt" />
<circle cx="302.550" cy="163.607" r="3.000" fill="#000000" stroke="none" stroke-width="0.5pt" />
<circle cx="302.550" cy="128.776" r="3.000" fill="#000000" stroke="none" stroke-width="0.5pt" />
</g>
</g>
    </g>
    <g>
      <polyline fill="none" stroke="#262626" stroke-width="0.5pt" stroke-dasharray="none" stroke-opacity="1.00" points="70.05000,320.40000 70.05000,323.33400 "/>
      <polyline fill="none" stroke="#262626" stroke-width="0.5pt" stroke-dasharray="none" stroke-opacity="1.00" points="120.57085,320.40000 120.57085,323.33400 "/>
      <polyline fill="none" stroke="#262626" stroke-width="0.5pt" stroke-dasharray="none" stroke-opacity="1.00" points="171.09171,320.40000 171.09171,323.33400 "/>
      <polyline fill="none" stroke="#262626" stroke-width="0.5pt" stroke-dasharray="none" stroke-opacity="1.00" points="221.61256,320.40000 221.61256,323.33400 "/>
      <polyline fill="none" stroke="#262626" stroke-width="0.5pt" stroke-dasharray="none" stroke-opacity="1.00" points="272.13342,320.40000 272.13342,323.33400 "/>
      <polyline fill="none" stroke="#262626" stroke-width="0.5pt" stroke-dasharray="none" stroke-opacity="1.00" points="322.65427,320.40000 322.65427,323.33400 "/>
      <polyline fill="none" stroke="#262626" stroke-width="0.5pt" stroke-dasharray="none" stroke-opacity="1.00" points="46.80000,320.40000 325.80000,320.40000 "/>
  <g transform="translate(70.050,343.362)">
    <g transform="rotate(-0.0)">
      <text x="0.000" y="0.000" font-family="Arial" text-anchor="middle" font-size="12pt" fill="#262626" ><tspan>1</tspan></text>
    </g>
  </g>
  <g transform="translate(120.571,343.362)">
    <g transform="rotate(-0.0)">
      <text x="0.000" y="0.000" font-family="Arial" text-anchor="middle" font-size="12pt" fill="#262626" ><tspan>1.5</tspan></text>
    </g>
  </g>
  <g transform="translate(171.092,343.362)">
    <g transform="rotate(-0.0)">
      <text x="0.000" y="0.000" font-family="Arial" text-anchor="middle" font-size="12pt" fill="#262626" ><tspan>2</tspan></text>
    </g>
  </g>
  <g transform="translate(221.613,343.362)">
    <g transform="rotate(-0.0)">
      <text x="0.000" y="0.000" font-family="Arial" text-anchor="middle" font-size="12pt" fill="#262626" ><tspan>2.5</tspan></text>
    </g>
  </g>
  <g transform="translate(272.133,343.362)">
    <g transform="rotate(-0.0)">
      <text x="0.000" y="0.000" font-family="Arial" text-anchor="middle" font-size="12pt" fill="#262626" ><tspan>3</tspan></text>
    </g>
  </g>
  <g transform="translate(322.654,343.362)">
    <g transform="rotate(-0.0)">
      <text x="0.000" y="0.000" font-family="Arial" text-anchor="middle" font-size="12pt" fill="#262626" ><tspan>3.5</tspan></text>
    </g>
  </g>
      <polyline fill="none" stroke="#262626" stroke-width="0.5pt" stroke-dasharray="none" stroke-opacity="1.00" points="46.80000,299.81883 43.86600,299.81883 "/>
      <polyline fill="none" stroke="#262626" stroke-width="0.5pt" stroke-dasharray="none" stroke-opacity="1.00" points="46.80000,264.18244 43.86600,264.18244 "/>
      <polyline fill="none" stroke="#262626" stroke-width="0.5pt" stroke-dasharray="none" stroke-opacity="1.00" points="46.80000,228.54604 43.86600,228.54604 "/>
      <polyline fill="none" stroke="#262626" stroke-width="0.5pt" stroke-dasharray="none" stroke-opacity="1.00" points="46.80000,192.90965 43.86600,192.90965 "/>
      <polyline fill="none" stroke="#262626" stroke-width="0.5pt" stroke-dasharray="none" stroke-opacity="1.00" points="46.80000,157.27325 43.86600,157.27325 "/>
      <polyline fill="none" stroke="#262626" stroke-width="0.5pt" stroke-dasharray="none" stroke-opacity="1.00" points="46.80000,121.63685 43.86600,121.63685 "/>
      <polyline fill="none" stroke="#262626" stroke-width="0.5pt" stroke-dasharray="none" stroke-opacity="1.00" points="46.80000,86.00046 43.86600,86.00046 "/>
      <polyline fill="none" stroke="#262626" stroke-width="0.5pt" stroke-dasharray="none" stroke-opacity="1.00" points="46.80000,50.36406 43.86600,50.36406 "/>
      <polyline fill="none" stroke="#262626" stroke-width="0.5pt" stroke-dasharray="none" stroke-opacity="1.00" points="46.80000,320.40000 46.80000,27.00000 "/>
  <g transform="translate(38.430,305.219)">
    <g transform="rotate(-0.0)">
      <text x="0.000" y="0.000" font-family="Arial" text-anchor="end" font-size="12pt" fill="#262626" ><tspan>5</tspan></text>
    </g>
  </g>
  <g transform="translate(38.430,269.582)">
    <g transform="rotate(-0.0)">
      <text x="0.000" y="0.000" font-family="Arial" text-anchor="end" font-size="12pt" fill="#262626" ><tspan>10</tspan></text>
    </g>
  </g>
  <g transform="translate(38.430,233.946)">
    <g transform="rotate(-0.0)">
      <text x="0.000" y="0.000" font-family="Arial" text-anchor="end" font-size="12pt" fill="#262626" ><tspan>15</tspan></text>
    </g>
  </g>
  <g transform="translate(38.430,198.310)">
    <g transform="rotate(-0.0)">
      <text x="0.000" y="0.000" font-family="Arial" text-anchor="end" font-size="12pt" fill="#262626" ><tspan>20</tspan></text>
    </g>
  </g>
  <g transform="translate(38.430,162.673)">
    <g transform="rotate(-0.0)">
      <text x="0.000" y="0.000" font-family="Arial" text-anchor="end" font-size="12pt" fill="#262626" ><tspan>25</tspan></text>
    </g>
  </g>
  <g transform="translate(38.430,127.037)">
    <g transform="rotate(-0.0)">
      <text x="0.000" y="0.000" font-family="Arial" text-anchor="end" font-size="12pt" fill="#262626" ><tspan>30</tspan></text>
    </g>
  </g>
  <g transform="translate(38.430,91.400)">
    <g transform="rotate(-0.0)">
      <text x="0.000" y="0.000" font-family="Arial" text-anchor="end" font-size="12pt" fill="#262626" ><tspan>35</tspan></text>
    </g>
  </g>
  <g transform="translate(38.430,55.764)">
    <g transform="rotate(-0.0)">
      <text x="0.000" y="0.000" font-family="Arial" text-anchor="end" font-size="12pt" fill="#262626" ><tspan>40</tspan></text>
    </g>
  </g>
      <polyline fill="none" stroke="#262626" stroke-width="0.5pt" stroke-dasharray="none" stroke-opacity="1.00" points="46.80000,320.40000 46.80000,323.33400 "/>
      <polyline fill="none" stroke="#262626" stroke-width="0.5pt" stroke-dasharray="none" stroke-opacity="1.00" points="46.80000,320.40000 46.80000,323.33400 "/>
      <polyline fill="none" stroke="#262626" stroke-width="0.5pt" stroke-dasharray="none" stroke-opacity="1.00" points="46.80000,320.40000 46.80000,323.33400 "/>
      <polyline fill="none" stroke="#262626" stroke-width="0.5pt" stroke-dasharray="none" stroke-opacity="1.00" points="46.80000,320.40000 46.80000,320.40000 "/>
    </g>
  </g>
  </g>
</svg>
